<svg xmlns="http://www.w3.org/2000/svg" viewBox="0 0 120 120" style="color:#F4B6C2" fill="none" stroke="currentColor" stroke-width="3" stroke-linecap="round" stroke-linejoin="round" aria-label="Champagne toast">

  <g transform="translate(40,66) rotate(-20)">
    <path d="M -13,-46 L 13,-46"></path>
    <path d="M -13,-46 C -14,-22 -5,-11 0,-7 C 5,-11 14,-22 13,-46"></path>
    <path d="M 0,-7 L 0,18"></path>
    <path d="M 0,18 L -9,22 M 0,18 L 9,22"></path>
    <path d="M -8,-33 L 8,-33"></path>
  </g>

  <g transform="translate(80,66) rotate(20)">
    <path d="M -13,-46 L 13,-46"></path>
    <path d="M -13,-46 C -14,-22 -5,-11 0,-7 C 5,-11 14,-22 13,-46"></path>
    <path d="M 0,-7 L 0,18"></path>
    <path d="M 0,18 L -9,22 M 0,18 L 9,22"></path>
    <path d="M -8,-33 L 8,-33"></path>
  </g>

  <path d="M 60 40 C 51 31 45 25 51 19 C 55 15 60 19 60 25 C 60 19 65 15 69 19 C 75 25 69 31 60 40 Z"></path>

  <circle cx="38" cy="28" r="1.6" fill="currentColor" stroke="none"></circle>
  <circle cx="82" cy="28" r="1.6" fill="currentColor" stroke="none"></circle>
  <circle cx="60" cy="12" r="1.6" fill="currentColor" stroke="none"></circle>
</svg>