<svg xmlns="http://www.w3.org/2000/svg" viewBox="0 0 120 120" style="color:#F4B6C2" fill="none" stroke="currentColor" stroke-width="3" stroke-linecap="round" stroke-linejoin="round" aria-label="Champagne toast">
  
  
  <path d="M 22 44 L 44 40 L 36 74 Z"></path>
  <path d="M 36 74 L 52 100"></path>
  <path d="M 44 104 L 60 104"></path>
  
  <path d="M 98 44 L 76 40 L 84 74 Z"></path>
  <path d="M 84 74 L 68 100"></path>
  <path d="M 60 104 L 76 104"></path>
  
  <path d="M 60 54 C 42 34 36 24 48 18 C 55 14 60 20 60 28 C 60 20 65 14 72 18 C 84 24 78 34 60 54 Z"></path>
  
  <circle cx="52" cy="50" r="1.5" fill="currentColor" stroke="none"></circle>
  <circle cx="68" cy="50" r="1.5" fill="currentColor" stroke="none"></circle>
  <circle cx="60" cy="60" r="1.4" fill="currentColor" stroke="none"></circle>
</svg>